Coordinates
version=1
nRows=8
nColumns=46
inDegrees=yes

Units are S.I. units (second, meters, Newtons, ...)
Angles are in degrees.

endheader
time	pelvis_tilt	pelvis_list	pelvis_rotation	pelvis_tx	pelvis_ty	pelvis_tz	bb_angle	bb_tx	bb_ty	bb_tz	hip_flexion_r	hip_adduction_r	hip_rotation_r	knee_angle_r	knee_angle_r_beta	ankle_angle_r	subtalar_angle_r	mtp_angle_r	crank_angle_r	hip_flexion_l	hip_adduction_l	hip_rotation_l	knee_angle_l	knee_angle_l_beta	ankle_angle_l	subtalar_angle_l	mtp_angle_l	crank_angle_l	lumbar_extension	lumbar_bending	lumbar_rotation	arm_flex_r	arm_add_r	arm_rot_r	elbow_flex_r	pro_sup_r	wrist_flex_r	wrist_dev_r	arm_flex_l	arm_add_l	arm_rot_l	elbow_flex_l	pro_sup_l	wrist_flex_l	wrist_dev_l
      5.00000000	    -22.16515120	     -9.76965758	     -4.89784885	      0.41558623	      1.21142214	     -0.25987382	      0.00000000	      0.50000000	      0.00000000	      0.25000000	     65.75718731	      5.72426029	      0.28842063	     96.55441317	      1.68519242	      7.40898056	      0.48567064	      0.00000000	      0.00000000	     13.68559796	    -13.94174339	     -9.02106300	     19.67267482	      0.34335295	    -17.42421178	     -0.12145138	      0.00000000	      0.00000000	    -63.86918123	      8.37738490	      7.23692966	     49.25101823	    -11.31766897	     25.05856273	     81.32049982	     51.60860253	      0.00000000	      0.00000000	     39.02840427	    -19.08879847	     16.67572403	     82.66623347	     54.62154962	      0.00000000	      0.00000000
      5.00500000	    -22.92471272	     -9.57952718	     -5.20107457	      0.41421833	      1.21281270	     -0.26004142	      0.00000000	      0.50000000	      0.00000000	      0.25000000	     66.17681015	      5.80390229	      0.43552067	     94.91665408	      1.65660813	      8.35402224	      0.83172305	      0.00000000	      0.00000000	     15.61684594	    -13.72264965	     -7.34607742	     22.40372681	      0.39101880	    -17.81732474	     -2.77015182	      0.00000000	      0.00000000	    -63.79249514	      8.41998243	      7.52030888	     49.49842941	    -11.64510656	     25.16475310	     82.30415097	     51.78243792	      0.00000000	      0.00000000	     39.01517234	    -19.03216826	     16.36398510	     83.24434627	     54.69135974	      0.00000000	      0.00000000
      5.01000000	    -23.34724451	     -9.06970746	     -5.42226560	      0.41302870	      1.21451007	     -0.26032414	      0.00000000	      0.50000000	      0.00000000	      0.25000000	     66.10242722	      5.63490027	      0.83551762	     93.22826193	      1.62714013	      9.61139672	      0.87819181	      0.00000000	      0.00000000	     17.21114963	    -13.10945359	     -5.93204958	     25.06396714	      0.43744875	    -18.54417043	     -4.93677986	      0.00000000	      0.00000000	    -64.09117399	      8.18743192	      7.62781285	     49.66481164	    -12.18726521	     25.08692956	     83.80068691	     51.74315908	      0.00000000	      0.00000000	     39.29471722	    -18.76054793	     16.03925455	     84.01109917	     54.34957023	      0.00000000	      0.00000000
      5.01500000	    -23.51031733	     -8.54209667	     -6.02012058	      0.41239241	      1.21651173	     -0.25978503	      0.00000000	      0.50000000	      0.00000000	      0.25000000	     65.49354305	      5.93338840	      1.45173231	     91.25836568	      1.59275895	     11.01144508	      0.56478438	      0.00000000	      0.00000000	     18.39139884	    -12.71391293	     -5.45731493	     27.81527426	      0.48546812	    -18.74537205	     -6.09786304	      0.00000000	      0.00000000	    -64.54996487	      7.50095972	      7.66567727	     49.96333927	    -12.07571089	     24.66987850	     84.25715236	     51.68371840	      0.00000000	      0.00000000	     39.66757116	    -18.59677047	     15.68575660	     84.19648994	     54.19401812	      0.00000000	      0.00000000
      5.02000000	    -23.76847104	     -8.03888926	     -6.45581276	      0.41160044	      1.21801524	     -0.25937879	      0.00000000	      0.50000000	      0.00000000	      0.25000000	     64.87483391	      6.03035920	      1.91105756	     89.14011894	      1.55578857	     12.37402895	      0.20865199	      0.00000000	      0.00000000	     19.90056556	    -12.29163701	     -4.76084315	     30.83661904	      0.53820053	    -19.01373940	     -7.28805214	      0.00000000	      0.00000000	    -64.89771080	      7.01266522	      7.74999579	     50.19894492	    -12.09759088	     24.31874660	     85.04529753	     51.50977353	      0.00000000	      0.00000000	     39.99974121	    -18.45373116	     15.46090288	     84.54547266	     53.82357090	      0.00000000	      0.00000000
      5.02500000	    -23.82974224	     -7.34626476	     -6.77056702	      0.41125756	      1.21963093	     -0.25933932	      0.00000000	      0.50000000	      0.00000000	      0.25000000	     63.85382730	      5.85258631	      2.52925241	     86.85008121	      1.51581987	     13.90695822	      0.08508441	      0.00000000	      0.00000000	     21.21972619	    -11.54741663	     -4.46916385	     33.48497922	      0.58442314	    -20.35993032	     -9.57783621	      0.00000000	      0.00000000	    -65.53796899	      6.25348093	      8.80040086	     49.40292690	    -14.28538393	     23.71169817	     88.59456490	     51.89723475	      0.00000000	      0.00000000	     41.16374629	    -17.63473173	     16.81375580	     84.74050291	     53.89778295	      0.00000000	      0.00000000
      5.03000000	    -23.62060581	     -6.73040651	     -6.80323723	      0.41139128	      1.22129759	     -0.25947649	      0.00000000	      0.50000000	      0.00000000	      0.25000000	     62.41807473	      5.44370181	      2.82277546	     84.43676907	      1.47369963	     15.22665065	     -0.72276203	      0.00000000	      0.00000000	     22.22996888	    -10.71815240	     -3.01289643	     36.48841611	      0.63684300	    -20.49412889	    -10.21028468	      0.00000000	      0.00000000	    -66.28062354	      5.88098323	      8.74533332	     49.41717522	    -14.63378366	     23.30732751	     89.67329577	     52.03281990	      0.00000000	      0.00000000	     41.66304551	    -17.34734108	     16.84450702	     85.11691792	     53.99486212	      0.00000000	      0.00000000
      5.03500000	    -23.34859363	     -5.86427550	     -7.02208111	      0.41162646	      1.22267380	     -0.25957951	      0.00000000	      0.50000000	      0.00000000	      0.25000000	     60.81965864	      5.11046004	      3.51392143	     81.85323963	      1.42860854	     16.30001991	     -2.09809696	      0.00000000	      0.00000000	     23.13275337	     -9.73758529	     -2.59518183	     39.14975905	      0.68329220	    -21.32413981	    -11.30729105	      0.00000000	      0.00000000	    -67.01013100	      5.08084663	      9.20584109	     48.71064820	    -15.68982187	     22.06813276	     91.90017590	     52.26720925	      0.00000000	      0.00000000	     42.65208805	    -16.46123141	     17.48691517	     84.86678491	     54.13415743	      0.00000000	      0.00000000
